<mxfile host="app.diagrams.net" modified="2023-04-01T14:31:58.383Z" agent="Mozilla/5.0 (Macintosh; Intel Mac OS X 10_14_6) AppleWebKit/537.36 (KHTML, like Gecko) Chrome/109.0.0.0 Safari/537.36" version="21.1.2" etag="2goLh49YN-vboRghlULn" type="github">
  <diagram name="第 1 页" id="yBO6SM0Zhe-wC9-ASEdo">
    <mxGraphModel>
      <root>
        <mxCell id="0" />
        <mxCell id="1" parent="0" />
      </root>
    </mxGraphModel>
  </diagram>
</mxfile>
